<svg viewBox="0 0 60 12"  xmlns="http://www.w3.org/2000/svg" >

<style type="text/css" media="screen"> 
svg {
   stroke-dashoffset : 50px;
}
path{
}
</style>

<mask id="path-1-outside-1" maskUnits="userSpaceOnUse" x="0.820312" y="0" width="59" height="12">
<rect fill="white" x="0.820312" width="59" height="12"/>
<path d="M2.9043 4.42773C3.38477 3.83789 4.00977 3.54297 4.7793 3.54297C6.11914 3.54297 6.79492 4.29883 6.80664 5.81055V10H5.72266V5.80469C5.71875 5.34766 5.61328 5.00977 5.40625 4.79102C5.20312 4.57227 4.88477 4.46289 4.45117 4.46289C4.09961 4.46289 3.79102 4.55664 3.52539 4.74414C3.25977 4.93164 3.05273 5.17773 2.9043 5.48242V10H1.82031V1H2.9043V4.42773Z"/>
<path d="M11.0605 10.1172C10.2012 10.1172 9.50195 9.83594 8.96289 9.27344C8.42383 8.70703 8.1543 7.95117 8.1543 7.00586V6.80664C8.1543 6.17773 8.27344 5.61719 8.51172 5.125C8.75391 4.62891 9.08984 4.24219 9.51953 3.96484C9.95312 3.68359 10.4219 3.54297 10.9258 3.54297C11.75 3.54297 12.3906 3.81445 12.8477 4.35742C13.3047 4.90039 13.5332 5.67773 13.5332 6.68945V7.14062H9.23828C9.25391 7.76562 9.43555 8.27148 9.7832 8.6582C10.1348 9.04102 10.5801 9.23242 11.1191 9.23242C11.502 9.23242 11.8262 9.1543 12.0918 8.99805C12.3574 8.8418 12.5898 8.63477 12.7891 8.37695L13.4512 8.89258C12.9199 9.70898 12.123 10.1172 11.0605 10.1172ZM10.9258 4.43359C10.4883 4.43359 10.1211 4.59375 9.82422 4.91406C9.52734 5.23047 9.34375 5.67578 9.27344 6.25H12.4492V6.16797C12.418 5.61719 12.2695 5.19141 12.0039 4.89062C11.7383 4.58594 11.3789 4.43359 10.9258 4.43359Z"/>
<path d="M15.9707 10H14.8867V1H15.9707V10Z"/>
<path d="M18.8887 10H17.8047V1H18.8887V10Z"/>
<path d="M20.3418 6.77148C20.3418 6.15039 20.4629 5.5918 20.7051 5.0957C20.9512 4.59961 21.291 4.2168 21.7246 3.94727C22.1621 3.67773 22.6602 3.54297 23.2188 3.54297C24.082 3.54297 24.7793 3.8418 25.3105 4.43945C25.8457 5.03711 26.1133 5.83203 26.1133 6.82422V6.90039C26.1133 7.51758 25.9941 8.07227 25.7559 8.56445C25.5215 9.05273 25.1836 9.43359 24.7422 9.70703C24.3047 9.98047 23.8008 10.1172 23.2305 10.1172C22.3711 10.1172 21.6738 9.81836 21.1387 9.2207C20.6074 8.62305 20.3418 7.83203 20.3418 6.84766V6.77148ZM21.4316 6.90039C21.4316 7.60352 21.5938 8.16797 21.918 8.59375C22.2461 9.01953 22.6836 9.23242 23.2305 9.23242C23.7812 9.23242 24.2188 9.01758 24.543 8.58789C24.8672 8.1543 25.0293 7.54883 25.0293 6.77148C25.0293 6.07617 24.8633 5.51367 24.5312 5.08398C24.2031 4.65039 23.7656 4.43359 23.2188 4.43359C22.6836 4.43359 22.252 4.64648 21.9238 5.07227C21.5957 5.49805 21.4316 6.10742 21.4316 6.90039Z"/>
<path d="M36.0625 8.50586L37.2812 3.66016H38.3652L36.5195 10H35.6406L34.0996 5.19531L32.5996 10H31.7207L29.8809 3.66016H30.959L32.207 8.40625L33.6836 3.66016H34.5566L36.0625 8.50586Z"/>
<path d="M39.1855 6.77148C39.1855 6.15039 39.3066 5.5918 39.5488 5.0957C39.7949 4.59961 40.1348 4.2168 40.5684 3.94727C41.0059 3.67773 41.5039 3.54297 42.0625 3.54297C42.9258 3.54297 43.623 3.8418 44.1543 4.43945C44.6895 5.03711 44.957 5.83203 44.957 6.82422V6.90039C44.957 7.51758 44.8379 8.07227 44.5996 8.56445C44.3652 9.05273 44.0273 9.43359 43.5859 9.70703C43.1484 9.98047 42.6445 10.1172 42.0742 10.1172C41.2148 10.1172 40.5176 9.81836 39.9824 9.2207C39.4512 8.62305 39.1855 7.83203 39.1855 6.84766V6.77148ZM40.2754 6.90039C40.2754 7.60352 40.4375 8.16797 40.7617 8.59375C41.0898 9.01953 41.5273 9.23242 42.0742 9.23242C42.625 9.23242 43.0625 9.01758 43.3867 8.58789C43.7109 8.1543 43.873 7.54883 43.873 6.77148C43.873 6.07617 43.707 5.51367 43.375 5.08398C43.0469 4.65039 42.6094 4.43359 42.0625 4.43359C41.5273 4.43359 41.0957 4.64648 40.7676 5.07227C40.4395 5.49805 40.2754 6.10742 40.2754 6.90039Z"/>
<path d="M49.3809 4.63281C49.2168 4.60547 49.0391 4.5918 48.8477 4.5918C48.1367 4.5918 47.6543 4.89453 47.4004 5.5V10H46.3164V3.66016H47.3711L47.3887 4.39258C47.7441 3.82617 48.248 3.54297 48.9004 3.54297C49.1113 3.54297 49.2715 3.57031 49.3809 3.625V4.63281Z"/>
<path d="M51.5605 10H50.4766V1H51.5605V10Z"/>
<path d="M53.0371 6.77734C53.0371 5.80469 53.2676 5.02344 53.7285 4.43359C54.1895 3.83984 54.793 3.54297 55.5391 3.54297C56.2812 3.54297 56.8691 3.79688 57.3027 4.30469V1H58.3867V10H57.3906L57.3379 9.32031C56.9043 9.85156 56.3008 10.1172 55.5273 10.1172C54.793 10.1172 54.1934 9.81641 53.7285 9.21484C53.2676 8.61328 53.0371 7.82812 53.0371 6.85938V6.77734ZM54.1211 6.90039C54.1211 7.61914 54.2695 8.18164 54.5664 8.58789C54.8633 8.99414 55.2734 9.19727 55.7969 9.19727C56.4844 9.19727 56.9863 8.88867 57.3027 8.27148V5.35938C56.9785 4.76172 56.4805 4.46289 55.8086 4.46289C55.2773 4.46289 54.8633 4.66797 54.5664 5.07812C54.2695 5.48828 54.1211 6.0957 54.1211 6.90039Z"/>
</mask>
<path d="M2.9043 4.42773C3.38477 3.83789 4.00977 3.54297 4.7793 3.54297C6.11914 3.54297 6.79492 4.29883 6.80664 5.81055V10H5.72266V5.80469C5.71875 5.34766 5.61328 5.00977 5.40625 4.79102C5.20312 4.57227 4.88477 4.46289 4.45117 4.46289C4.09961 4.46289 3.79102 4.55664 3.52539 4.74414C3.25977 4.93164 3.05273 5.17773 2.9043 5.48242V10H1.82031V1H2.9043V4.42773Z" stroke="white" stroke-width="2" stroke-linecap="round" stroke-linejoin="round" mask="url(#path-1-outside-1)"/>
<path d="M11.0605 10.1172C10.2012 10.1172 9.50195 9.83594 8.96289 9.27344C8.42383 8.70703 8.1543 7.95117 8.1543 7.00586V6.80664C8.1543 6.17773 8.27344 5.61719 8.51172 5.125C8.75391 4.62891 9.08984 4.24219 9.51953 3.96484C9.95312 3.68359 10.4219 3.54297 10.9258 3.54297C11.75 3.54297 12.3906 3.81445 12.8477 4.35742C13.3047 4.90039 13.5332 5.67773 13.5332 6.68945V7.14062H9.23828C9.25391 7.76562 9.43555 8.27148 9.7832 8.6582C10.1348 9.04102 10.5801 9.23242 11.1191 9.23242C11.502 9.23242 11.8262 9.1543 12.0918 8.99805C12.3574 8.8418 12.5898 8.63477 12.7891 8.37695L13.4512 8.89258C12.9199 9.70898 12.123 10.1172 11.0605 10.1172ZM10.9258 4.43359C10.4883 4.43359 10.1211 4.59375 9.82422 4.91406C9.52734 5.23047 9.34375 5.67578 9.27344 6.25H12.4492V6.16797C12.418 5.61719 12.2695 5.19141 12.0039 4.89062C11.7383 4.58594 11.3789 4.43359 10.9258 4.43359Z" stroke="white" stroke-width="2" stroke-linecap="round" stroke-linejoin="round" mask="url(#path-1-outside-1)"/>
<path d="M15.9707 10H14.8867V1H15.9707V10Z" stroke="white" stroke-width="2" stroke-linecap="round" stroke-linejoin="round" mask="url(#path-1-outside-1)"/>
<path d="M18.8887 10H17.8047V1H18.8887V10Z" stroke="white" stroke-width="2" stroke-linecap="round" stroke-linejoin="round" mask="url(#path-1-outside-1)"/>
<path d="M20.3418 6.77148C20.3418 6.15039 20.4629 5.5918 20.7051 5.0957C20.9512 4.59961 21.291 4.2168 21.7246 3.94727C22.1621 3.67773 22.6602 3.54297 23.2188 3.54297C24.082 3.54297 24.7793 3.8418 25.3105 4.43945C25.8457 5.03711 26.1133 5.83203 26.1133 6.82422V6.90039C26.1133 7.51758 25.9941 8.07227 25.7559 8.56445C25.5215 9.05273 25.1836 9.43359 24.7422 9.70703C24.3047 9.98047 23.8008 10.1172 23.2305 10.1172C22.3711 10.1172 21.6738 9.81836 21.1387 9.2207C20.6074 8.62305 20.3418 7.83203 20.3418 6.84766V6.77148ZM21.4316 6.90039C21.4316 7.60352 21.5938 8.16797 21.918 8.59375C22.2461 9.01953 22.6836 9.23242 23.2305 9.23242C23.7812 9.23242 24.2188 9.01758 24.543 8.58789C24.8672 8.1543 25.0293 7.54883 25.0293 6.77148C25.0293 6.07617 24.8633 5.51367 24.5312 5.08398C24.2031 4.65039 23.7656 4.43359 23.2188 4.43359C22.6836 4.43359 22.252 4.64648 21.9238 5.07227C21.5957 5.49805 21.4316 6.10742 21.4316 6.90039Z" stroke="white" stroke-width="2" stroke-linecap="round" stroke-linejoin="round" mask="url(#path-1-outside-1)"/>
<path d="M36.0625 8.50586L37.2812 3.66016H38.3652L36.5195 10H35.6406L34.0996 5.19531L32.5996 10H31.7207L29.8809 3.66016H30.959L32.207 8.40625L33.6836 3.66016H34.5566L36.0625 8.50586Z" stroke="white" stroke-width="2" stroke-linecap="round" stroke-linejoin="round" mask="url(#path-1-outside-1)"/>
<path d="M39.1855 6.77148C39.1855 6.15039 39.3066 5.5918 39.5488 5.0957C39.7949 4.59961 40.1348 4.2168 40.5684 3.94727C41.0059 3.67773 41.5039 3.54297 42.0625 3.54297C42.9258 3.54297 43.623 3.8418 44.1543 4.43945C44.6895 5.03711 44.957 5.83203 44.957 6.82422V6.90039C44.957 7.51758 44.8379 8.07227 44.5996 8.56445C44.3652 9.05273 44.0273 9.43359 43.5859 9.70703C43.1484 9.98047 42.6445 10.1172 42.0742 10.1172C41.2148 10.1172 40.5176 9.81836 39.9824 9.2207C39.4512 8.62305 39.1855 7.83203 39.1855 6.84766V6.77148ZM40.2754 6.90039C40.2754 7.60352 40.4375 8.16797 40.7617 8.59375C41.0898 9.01953 41.5273 9.23242 42.0742 9.23242C42.625 9.23242 43.0625 9.01758 43.3867 8.58789C43.7109 8.1543 43.873 7.54883 43.873 6.77148C43.873 6.07617 43.707 5.51367 43.375 5.08398C43.0469 4.65039 42.6094 4.43359 42.0625 4.43359C41.5273 4.43359 41.0957 4.64648 40.7676 5.07227C40.4395 5.49805 40.2754 6.10742 40.2754 6.90039Z" stroke="white" stroke-width="2" stroke-linecap="round" stroke-linejoin="round" mask="url(#path-1-outside-1)"/>
<path d="M49.3809 4.63281C49.2168 4.60547 49.0391 4.5918 48.8477 4.5918C48.1367 4.5918 47.6543 4.89453 47.4004 5.5V10H46.3164V3.66016H47.3711L47.3887 4.39258C47.7441 3.82617 48.248 3.54297 48.9004 3.54297C49.1113 3.54297 49.2715 3.57031 49.3809 3.625V4.63281Z" stroke="white" stroke-width="2" stroke-linecap="round" stroke-linejoin="round" mask="url(#path-1-outside-1)"/>
<path d="M51.5605 10H50.4766V1H51.5605V10Z" stroke="white" stroke-width="2" stroke-linecap="round" stroke-linejoin="round" mask="url(#path-1-outside-1)"/>
<path d="M53.0371 6.77734C53.0371 5.80469 53.2676 5.02344 53.7285 4.43359C54.1895 3.83984 54.793 3.54297 55.5391 3.54297C56.2812 3.54297 56.8691 3.79688 57.3027 4.30469V1H58.3867V10H57.3906L57.3379 9.32031C56.9043 9.85156 56.3008 10.1172 55.5273 10.1172C54.793 10.1172 54.1934 9.81641 53.7285 9.21484C53.2676 8.61328 53.0371 7.82812 53.0371 6.85938V6.77734ZM54.1211 6.90039C54.1211 7.61914 54.2695 8.18164 54.5664 8.58789C54.8633 8.99414 55.2734 9.19727 55.7969 9.19727C56.4844 9.19727 56.9863 8.88867 57.3027 8.27148V5.35938C56.9785 4.76172 56.4805 4.46289 55.8086 4.46289C55.2773 4.46289 54.8633 4.66797 54.5664 5.07812C54.2695 5.48828 54.1211 6.0957 54.1211 6.90039Z" stroke="white" stroke-width="2" stroke-linecap="round" stroke-linejoin="round" mask="url(#path-1-outside-1)"/>
</svg>
